<svg xmlns="http://www.w3.org/2000/svg" viewBox="0 0 370.8508 43.7229">
  <defs>
    <style>
      .a {
        fill: #040000;
      }

      .b {
        fill: #333;
      }
    </style>
  </defs>
  <g>
    <g>
      <path class="a" d="M40.5485,11.5716q0,8.8209-5.4773,13.7766T20.108,30.3043v-6.07q6.877,0,10.5762-3.0826t3.6991-9.2V8.4416H0V2.5135H40.5485ZM19.3023,20.8668a21.5781,21.5781,0,0,1-5.2646,14.7965A17.9177,17.9177,0,0,1,0,41.8759V35.853a12.012,12.012,0,0,0,10.1968-4.79,16.9779,16.9779,0,0,0,3.13-10.4808V15.745h5.9755Z"/>
      <path class="a" d="M89.8221,41.07H49.2267V35.0942H89.8221ZM88.1149,9.8169H51.0288V3.8888H88.1149Z"/>
      <path class="a" d="M110.025,17.0728a72.9032,72.9032,0,0,1-1.47,13.6109,81.5137,81.5137,0,0,1-2.7506,10.7654H99.45a87.1267,87.1267,0,0,0,2.8455-10.86,69.82,69.82,0,0,0,1.5645-13.516Zm27.032-5.2641H123.1611V41.7336h-5.9745V11.8087H99.64V5.8332h17.5471V1.1382h5.9745v4.695h7.5879V9.58h6.308Zm3.4625,29.64h-6.1662a67.0265,67.0265,0,0,0-1.1142-11.1213q-1.1142-6.4735-2.9633-13.255h6.0224q1.4707,5.4544,2.7037,12.8521Q140.0442,36.2329,140.52,41.4491Zm-4.411-33.956H132.79V0h3.3187Zm5.5013,0H138.337V0H141.61Z"/>
      <path class="a" d="M189.3668,1.3279a15.89,15.89,0,0,1-4.41,9.8643q-3.3681,3.3673-10.054,5.5961V41.6388h-6.07V18.4482l-20.7251,5.4064V17.6894l22.1-5.7858q6.0219-1.5171,8.9637-3.8414A9.4335,9.4335,0,0,0,182.87,1.3279Z"/>
      <path class="a" d="M236.9811,42.2433l-13.8-11.0379a39.294,39.294,0,0,1-11.8561,7.4456,39.2939,39.2939,0,0,1-14.9393,2.8929V35.5684q13.0893-1.2326,21.389-7.7776a23.0072,23.0072,0,0,0,9.2-18.875H197.7615V2.94h35.71V6.591a36.4852,36.4852,0,0,1-1.5416,10.88,30.4774,30.4774,0,0,1-4.5757,9.0791l9.6267,7.9179Z"/>
    </g>
    <g>
      <path class="b" d="M270.3332,9.3684a67.1469,67.1469,0,0,0,2.64,12.518c2.6-.96,2.6-.96,10.3579-3.5195a10.864,10.864,0,0,0,1.52-.6l1.72,5.04a97.6218,97.6218,0,0,0-13.1978,3.8393c-5.8393,2.1592-8.7588,4.7188-8.7588,7.5987,0,2.9194,2.72,4.1591,9.1587,4.1591,4.9991,0,9.9185-.6,12.918-1.64l.44,5.479a24.9536,24.9536,0,0,0-3.24.28,84.5355,84.5355,0,0,1-9.3584.6c-5.5591,0-9.0386-.68-11.5981-2.2a7.5693,7.5693,0,0,1-3.48-6.6787,9.391,9.391,0,0,1,3.56-7.1587,24.6765,24.6765,0,0,1,5.439-3.4395,101.9456,101.9456,0,0,1-2.6792-10.8384,17.0152,17.0152,0,0,0-.64-2.6Z"/>
      <path class="b" d="M301.7751,43.7229a14.42,14.42,0,0,0-.2-1.56,75.8507,75.8507,0,0,1-1.08-12.7178,71.47,71.47,0,0,1,.76-10.5981c.2-1.2.2-1.2,1.08-5.7192a21.4922,21.4922,0,0,0,.44-2.96v-.16l5.3989.56c-1.64,3.48-3.1592,13.1177-3.1992,20.0766-.04,1.44-.04,1.44-.04,2.08v.64a6.8066,6.8066,0,0,1-.04.84h.04c.2-.44.2-.44.48-1.16.08-.28.28-.72.48-1.36.36-.84.36-.84.76-1.8a7.5935,7.5935,0,0,0,.48-1.24l3.3193,1.48c-2.3594,4.64-3.9595,9.5987-3.9595,12.2383a7.8233,7.8233,0,0,0,.08,1.08Zm9.0386-26.1958a28.8257,28.8257,0,0,0,7.2387.64c1.4,0,2.28,0,3.68-.08,0-2.36-.04-4.3593-.04-5.999a11.186,11.186,0,0,0-.12-1.92l4.999-.12a39.177,39.177,0,0,0-.28,5.8794v1.8393a40.1689,40.1689,0,0,0,5.3989-.9595c.24-.08.24-.08.88-.32l.32-.08.16,4.5191a6.9289,6.9289,0,0,0-1.16.2c-1.36.28-3.4394.64-5.5591.88v.88c0,2.24,0,2.32.4,9.0385a31.8905,31.8905,0,0,1,6.2788,3.64,7.6068,7.6068,0,0,0,1.12.68l-1.92,4.8393a14.9636,14.9636,0,0,0-3-2.5595c-1.36-.88-2.28-1.48-2.5195-1.64v.56a7.0059,7.0059,0,0,1-.32,2.24c-.92,2.3594-3.7193,3.7593-7.5987,3.7593-5.2392,0-8.4389-2.48-8.4389-6.5586,0-3.8794,3.3994-6.5991,8.2387-6.5991a9.5079,9.5079,0,0,1,3.56.56c-.12-1-.16-2.9594-.32-8.5185-1.6.04-2.56.08-3.5991.08-1.48,0-3.08-.04-4.959-.2-.56,0-1-.04-1.2-.04a5.95,5.95,0,0,0-.68-.04,1.8365,1.8365,0,0,0-.4-.04.705.705,0,0,0-.24.04Zm8.1186,16.7573c-2.56,0-4.1592,1-4.1592,2.6392,0,1.48,1.44,2.48,3.6792,2.48a3.9323,3.9323,0,0,0,3.24-1.24,3.3578,3.3578,0,0,0,.52-2.16v-1.08A8.3734,8.3734,0,0,0,318.9323,34.2844Z"/>
      <path class="b" d="M356.173,34.1643a13.7368,13.7368,0,0,0,.12-1.68l-.04-.76a8.0109,8.0109,0,0,1,1.64-5.1992c.84-1,1.16-1.28,3.7592-3s3.52-2.9595,3.52-4.7993c0-2.44-2.12-3.96-5.5191-3.96a5.603,5.603,0,0,0-4.7993,2.28,5.8017,5.8017,0,0,0-.9595,3.04l-5.9194-.72c.64-2.92,1.44-4.4394,3.16-6.039,2.0395-1.84,5.0791-2.8,8.8383-2.8a12.5,12.5,0,0,1,8.0386,2.4,6.8791,6.8791,0,0,1,2.84,5.5992,7.5163,7.5163,0,0,1-1.4,4.7192c-.92,1.28-1.68,1.9194-4.919,4.1191-2.48,1.68-3.12,2.64-3.12,4.7593a19.0606,19.0606,0,0,0,.12,2.04Zm5.5591,3.3193v5.479h-5.7988v-5.479Z"/>
    </g>
  </g>
</svg>
