<svg width="221" height="34" fill="none" xmlns="http://www.w3.org/2000/svg"><path d="M26.18 7.476c0 3.797-1.18 6.76-3.538 8.89-2.359 2.131-5.587 3.207-9.684 3.229v-3.92c2.957 0 5.234-.662 6.83-1.988 1.597-1.325 2.391-3.305 2.383-5.94V5.482H0V1.666h26.18v5.81zm-13.72 5.998a13.933 13.933 0 0 1-3.395 9.555 11.577 11.577 0 0 1-9.04 4.01v-3.874a7.748 7.748 0 0 0 6.586-3.092c1.4-1.972 2.111-4.35 2.021-6.767v-3.124h3.874l-.046 3.292zm45.53 13.068H31.784v-3.874H57.99v3.874zM56.892 6.36H32.947V2.537h23.947V6.36zm14.146 4.687a47.06 47.06 0 0 1-.949 8.787 53.084 53.084 0 0 1-1.775 6.953h-4.106a57.66 57.66 0 0 0 1.84-7.011c.618-2.87.955-5.794 1.007-8.73h3.983zM88.47 7.65h-8.974v19.317h-3.874V7.65H64.33V3.777h11.33V.742h3.875v3.035h4.874v2.408h4.074l-.013 1.466zm2.234 19.136H86.72a43.504 43.504 0 0 0-.716-7.186 86.651 86.651 0 0 0-1.937-8.554h3.874c.632 2.35 1.213 5.115 1.743 8.296.49 2.716.837 5.197 1.04 7.444h-.02zM87.857 4.836h-2.144V0h2.144v4.836zm3.55 0h-2.091V0h2.111l-.02 4.836zM122.263.878a10.333 10.333 0 0 1-2.847 6.372c-1.451 1.446-3.616 2.65-6.495 3.61v16.05h-3.919V11.93l-13.377 3.493v-3.977l14.268-3.738c2.582-.655 4.519-1.481 5.81-2.48a6.08 6.08 0 0 0 2.389-4.351h4.171zM153 27.298l-8.91-7.103a25.624 25.624 0 0 1-17.296 6.65v-3.873c5.63-.53 10.233-2.202 13.81-5.017a14.847 14.847 0 0 0 5.94-12.19h-18.878V1.893h23.055v2.356a23.53 23.53 0 0 1-.994 7.025 19.803 19.803 0 0 1-2.951 5.862l6.211 5.107.013 5.055z" fill="#040000"/><path d="M168.364 12.582c.09.27.108.306.288 1.17.45 2.214.756 3.42 1.206 4.878-1.17.594-1.746.954-2.448 1.548-1.026.864-1.602 2.016-1.602 3.222 0 1.296.576 2.412 1.566 3.006 1.152.684 2.718.99 5.22.99 1.26 0 2.268-.072 4.212-.27.972-.108 1.062-.126 1.458-.126l-.198-2.466c-1.35.468-3.564.738-5.814.738-2.898 0-4.122-.558-4.122-1.872 0-1.296 1.314-2.448 3.942-3.42 2.016-.738 4.374-1.422 5.94-1.728l-.774-2.268c-.27.126-.36.162-.684.27-3.492 1.152-3.492 1.152-4.662 1.584-.576-1.836-1.116-4.428-1.188-5.634l-2.34.378zm20.88 5.364c.054-.018.09-.018.108-.018.036 0 .09 0 .18.018.036 0 .144 0 .306.018.09 0 .288.018.54.018.846.072 1.566.09 2.232.09.468 0 .9-.018 1.62-.036.072 2.502.09 3.384.144 3.834-.486-.18-.936-.252-1.602-.252-2.178 0-3.708 1.224-3.708 2.97 0 1.836 1.44 2.952 3.798 2.952 1.746 0 3.006-.63 3.42-1.692.09-.252.144-.612.144-1.008v-.252c.108.072.522.342 1.134.738.504.324 1.044.792 1.35 1.152l.864-2.178c-.18-.09-.27-.144-.504-.306-1.08-.774-1.53-1.026-2.826-1.638-.18-3.024-.18-3.06-.18-4.068v-.396c.954-.108 1.89-.27 2.502-.396.324-.072.342-.072.522-.09l-.072-2.034-.144.036c-.288.108-.288.108-.396.144-.702.18-1.494.324-2.43.432v-.828c0-1.278.036-2.142.126-2.646l-2.25.054c.036.198.054.468.054.864 0 .738.018 1.638.018 2.7-.63.036-1.026.036-1.656.036-1.476 0-2.412-.072-3.258-.288l-.036 2.07zm5.166 5.76v.486c0 .486-.072.756-.234.972-.27.36-.792.558-1.458.558-1.008 0-1.656-.45-1.656-1.116 0-.738.72-1.188 1.872-1.188.54 0 .882.072 1.476.288zm-7.038 3.834c-.036-.342-.036-.36-.036-.486 0-1.188.72-3.42 1.782-5.508l-1.494-.666c-.162.45-.18.504-.216.558-.18.432-.18.432-.342.81-.09.288-.18.486-.216.612-.126.324-.126.324-.216.522h-.018c.018-.198.018-.234.018-.378v-.288c0-.288 0-.288.018-.936.018-3.132.702-7.47 1.44-9.036l-2.43-.252v.072c0 .18-.072.702-.198 1.332-.396 2.034-.396 2.034-.486 2.574a32.174 32.174 0 0 0-.342 4.77c0 1.89.144 3.618.486 5.724.072.414.072.522.09.702l2.16-.126zm25.092-4.176a8.59 8.59 0 0 1-.054-.918c0-.954.288-1.386 1.404-2.142 1.458-.99 1.8-1.278 2.214-1.854.432-.576.63-1.26.63-2.124 0-1.008-.432-1.854-1.278-2.52-.9-.72-2.106-1.08-3.618-1.08-1.692 0-3.06.432-3.978 1.26-.774.72-1.134 1.404-1.422 2.718l2.664.324c.072-.684.18-.99.432-1.368.432-.648 1.224-1.026 2.16-1.026 1.53 0 2.484.684 2.484 1.782 0 .828-.414 1.386-1.584 2.16-1.17.774-1.314.9-1.692 1.35-.504.648-.738 1.386-.738 2.34l.018.342c0 .234-.018.45-.054.756h2.412zm-2.52 1.494v2.466h2.61v-2.466h-2.61z" fill="#000"/></svg>